# xmcd
# 
# Track frame offsets:
#     183
#     22418
#     45025
#     62855
#     80133
#     100563
#     122893
#     147703
#     166165
# 
# Disc length: 2604
# 
# Revision: 4
# Processed by: cddbd v1.5.2PL0 Copyright (c) Steve Scherf et al.
# Submitted via: BonkEnc v1.0.5
# 
DISCID=7a0a2a09
DTITLE=Albert Collins Robert Cray Johnny Copeland - Showdown!
DYEAR=1985
DGENRE=Blues
TTITLE0=T-Bone Shuffle
TTITLE1=The Moon Is Full
TTITLE2=Lion's Den
TTITLE3=She's Into Something
TTITLE4=Bring You Fine Self Home
TTITLE5=Black Cat Bone
TTITLE6=The Dream
TTITLE7=Albert's Alley
TTITLE8=Blackjack
EXTD=
EXTT0=
EXTT1=
EXTT2=
EXTT3=
EXTT4=
EXTT5=
EXTT6=
EXTT7=
EXTT8=
PLAYORDER=
